<svg xmlns="http://www.w3.org/2000/svg" viewBox="0 0 1512 728" width="1512" height="728" font-family="-apple-system, 'Segoe UI', Helvetica, Arial, sans-serif" font-size="13" color="#6b7280"><rect width="1512" height="728" fill="white"/><defs><marker id="arrow" viewBox="0 0 10 10" refX="9" refY="5" markerWidth="6" markerHeight="6" orient="auto-start-reverse"><path d="M 0 0 L 10 5 L 0 10 z" fill="currentColor"/></marker></defs><text x="38" y="132.0" fill="#f97316" font-size="13" font-weight="700" text-anchor="start">WORKLOAD</text>
<rect x="20" y="116.0" width="6" height="22" fill="#f97316" stroke="none" stroke-width="1" rx="2"/>
<text x="38" y="214.0" fill="#dc2626" font-size="13" font-weight="700" text-anchor="start">CONSENSUS</text>
<rect x="20" y="198.0" width="6" height="22" fill="#dc2626" stroke="none" stroke-width="1" rx="2"/>
<text x="38" y="296.0" fill="#16a34a" font-size="13" font-weight="700" text-anchor="start">RUNTIME</text>
<rect x="20" y="280.0" width="6" height="22" fill="#16a34a" stroke="none" stroke-width="1" rx="2"/>
<text x="38" y="378.0" fill="#7c3aed" font-size="13" font-weight="700" text-anchor="start">NETWORK</text>
<rect x="20" y="362.0" width="6" height="22" fill="#7c3aed" stroke="none" stroke-width="1" rx="2"/>
<text x="38" y="460.0" fill="#6b7280" font-size="13" font-weight="700" text-anchor="start">PINNING</text>
<rect x="20" y="444.0" width="6" height="22" fill="#6b7280" stroke="none" stroke-width="1" rx="2"/>
<text x="38" y="545.0" fill="#1e3a8a" font-size="13" font-weight="700" text-anchor="start">P2P MESH</text>
<rect x="20" y="529.0" width="6" height="22" fill="#1e3a8a" stroke="none" stroke-width="1" rx="2"/>
<text x="38" y="626.0" fill="#0e7490" font-size="13" font-weight="700" text-anchor="start">STORAGE</text>
<rect x="20" y="610.0" width="6" height="22" fill="#0e7490" stroke="none" stroke-width="1" rx="2"/>
<rect x="200" y="30" width="280" height="42" fill="#1e3a8a" stroke="none" stroke-width="1" rx="6"/><text x="340.0" y="58" fill="white" font-size="18" font-weight="700" text-anchor="middle">node 0</text>
<rect x="200" y="100" width="280" height="54" fill="#fff7ed" stroke="#f97316" stroke-width="2" rx="4"/>
<text x="340.0" y="133.0" fill="#9a3412" font-size="15" font-weight="700" text-anchor="middle">tx_generator</text>
<rect x="200" y="182" width="280" height="54" fill="#fef2f2" stroke="#dc2626" stroke-width="2" rx="4"/>
<text x="340.0" y="215.0" fill="#991b1b" font-size="15" font-weight="700" text-anchor="middle">chunk producer  (1 CP seat)</text>
<rect x="200" y="264" width="280" height="54" fill="#f0fdf4" stroke="#16a34a" stroke-width="2" rx="4"/>
<text x="340.0" y="297.0" fill="#166534" font-size="15" font-weight="700" text-anchor="middle">runtime / apply chunks</text>
<rect x="200" y="346" width="280" height="54" fill="#faf5ff" stroke="#7c3aed" stroke-width="2" rx="4"/>
<text x="340.0" y="379.0" fill="#5b21b6" font-size="15" font-weight="700" text-anchor="middle">network endpoints</text>
<rect x="200" y="428" width="280" height="54" fill="#f3f4f6" stroke="#6b7280" stroke-width="2" rx="4"/>
<text x="340.0" y="461.0" fill="#374151" font-size="15" font-weight="700" text-anchor="middle">numactl pinning</text>
<line x1="340.0" y1="154" x2="340.0" y2="176" stroke="#6b7280" stroke-width="1.6" marker-end="url(#arrow)"/>
<line x1="340.0" y1="236" x2="340.0" y2="258" stroke="#6b7280" stroke-width="1.6" marker-end="url(#arrow)"/>
<line x1="340.0" y1="318" x2="340.0" y2="340" stroke="#6b7280" stroke-width="1.6" marker-end="url(#arrow)"/>
<line x1="340.0" y1="400" x2="340.0" y2="422" stroke="#6b7280" stroke-width="1.6" marker-end="url(#arrow)"/>
<rect x="524" y="30" width="280" height="42" fill="#1e3a8a" stroke="none" stroke-width="1" rx="6"/><text x="664.0" y="58" fill="white" font-size="18" font-weight="700" text-anchor="middle">node 1</text>
<rect x="524" y="100" width="280" height="54" fill="#fff7ed" stroke="#f97316" stroke-width="2" rx="4"/>
<text x="664.0" y="133.0" fill="#9a3412" font-size="15" font-weight="700" text-anchor="middle">tx_generator</text>
<rect x="524" y="182" width="280" height="54" fill="#fef2f2" stroke="#dc2626" stroke-width="2" rx="4"/>
<text x="664.0" y="215.0" fill="#991b1b" font-size="15" font-weight="700" text-anchor="middle">chunk producer  (1 CP seat)</text>
<rect x="524" y="264" width="280" height="54" fill="#f0fdf4" stroke="#16a34a" stroke-width="2" rx="4"/>
<text x="664.0" y="297.0" fill="#166534" font-size="15" font-weight="700" text-anchor="middle">runtime / apply chunks</text>
<rect x="524" y="346" width="280" height="54" fill="#faf5ff" stroke="#7c3aed" stroke-width="2" rx="4"/>
<text x="664.0" y="379.0" fill="#5b21b6" font-size="15" font-weight="700" text-anchor="middle">network endpoints</text>
<rect x="524" y="428" width="280" height="54" fill="#f3f4f6" stroke="#6b7280" stroke-width="2" rx="4"/>
<text x="664.0" y="461.0" fill="#374151" font-size="15" font-weight="700" text-anchor="middle">numactl pinning</text>
<line x1="664.0" y1="154" x2="664.0" y2="176" stroke="#6b7280" stroke-width="1.6" marker-end="url(#arrow)"/>
<line x1="664.0" y1="236" x2="664.0" y2="258" stroke="#6b7280" stroke-width="1.6" marker-end="url(#arrow)"/>
<line x1="664.0" y1="318" x2="664.0" y2="340" stroke="#6b7280" stroke-width="1.6" marker-end="url(#arrow)"/>
<line x1="664.0" y1="400" x2="664.0" y2="422" stroke="#6b7280" stroke-width="1.6" marker-end="url(#arrow)"/>
<rect x="848" y="30" width="280" height="42" fill="#94a3b8" stroke="none" stroke-width="1" rx="6"/><text x="988.0" y="58" fill="white" font-size="18" font-weight="700" text-anchor="middle">···</text>
<rect x="848" y="100" width="280" height="54" fill="white" stroke="#f97316" stroke-width="1.5" rx="4" stroke-dasharray="6,5"/>
<text x="988.0" y="135.0" fill="#f97316" font-size="22" font-weight="700" text-anchor="middle">· · ·</text>
<rect x="848" y="182" width="280" height="54" fill="white" stroke="#dc2626" stroke-width="1.5" rx="4" stroke-dasharray="6,5"/>
<text x="988.0" y="217.0" fill="#dc2626" font-size="22" font-weight="700" text-anchor="middle">· · ·</text>
<rect x="848" y="264" width="280" height="54" fill="white" stroke="#16a34a" stroke-width="1.5" rx="4" stroke-dasharray="6,5"/>
<text x="988.0" y="299.0" fill="#16a34a" font-size="22" font-weight="700" text-anchor="middle">· · ·</text>
<rect x="848" y="346" width="280" height="54" fill="white" stroke="#7c3aed" stroke-width="1.5" rx="4" stroke-dasharray="6,5"/>
<text x="988.0" y="381.0" fill="#7c3aed" font-size="22" font-weight="700" text-anchor="middle">· · ·</text>
<rect x="848" y="428" width="280" height="54" fill="white" stroke="#6b7280" stroke-width="1.5" rx="4" stroke-dasharray="6,5"/>
<text x="988.0" y="463.0" fill="#6b7280" font-size="22" font-weight="700" text-anchor="middle">· · ·</text>
<line x1="988.0" y1="154" x2="988.0" y2="176" stroke="#94a3b8" stroke-width="1.6" marker-end="url(#arrow)"/>
<line x1="988.0" y1="236" x2="988.0" y2="258" stroke="#94a3b8" stroke-width="1.6" marker-end="url(#arrow)"/>
<line x1="988.0" y1="318" x2="988.0" y2="340" stroke="#94a3b8" stroke-width="1.6" marker-end="url(#arrow)"/>
<line x1="988.0" y1="400" x2="988.0" y2="422" stroke="#94a3b8" stroke-width="1.6" marker-end="url(#arrow)"/>
<rect x="1172" y="30" width="280" height="42" fill="#1e3a8a" stroke="none" stroke-width="1" rx="6"/><text x="1312.0" y="58" fill="white" font-size="18" font-weight="700" text-anchor="middle">node N</text>
<rect x="1172" y="100" width="280" height="54" fill="#fff7ed" stroke="#f97316" stroke-width="2" rx="4"/>
<text x="1312.0" y="133.0" fill="#9a3412" font-size="15" font-weight="700" text-anchor="middle">tx_generator</text>
<rect x="1172" y="182" width="280" height="54" fill="#fef2f2" stroke="#dc2626" stroke-width="2" rx="4"/>
<text x="1312.0" y="215.0" fill="#991b1b" font-size="15" font-weight="700" text-anchor="middle">chunk producer  (1 CP seat)</text>
<rect x="1172" y="264" width="280" height="54" fill="#f0fdf4" stroke="#16a34a" stroke-width="2" rx="4"/>
<text x="1312.0" y="297.0" fill="#166534" font-size="15" font-weight="700" text-anchor="middle">runtime / apply chunks</text>
<rect x="1172" y="346" width="280" height="54" fill="#faf5ff" stroke="#7c3aed" stroke-width="2" rx="4"/>
<text x="1312.0" y="379.0" fill="#5b21b6" font-size="15" font-weight="700" text-anchor="middle">network endpoints</text>
<rect x="1172" y="428" width="280" height="54" fill="#f3f4f6" stroke="#6b7280" stroke-width="2" rx="4"/>
<text x="1312.0" y="461.0" fill="#374151" font-size="15" font-weight="700" text-anchor="middle">numactl pinning</text>
<line x1="1312.0" y1="154" x2="1312.0" y2="176" stroke="#6b7280" stroke-width="1.6" marker-end="url(#arrow)"/>
<line x1="1312.0" y1="236" x2="1312.0" y2="258" stroke="#6b7280" stroke-width="1.6" marker-end="url(#arrow)"/>
<line x1="1312.0" y1="318" x2="1312.0" y2="340" stroke="#6b7280" stroke-width="1.6" marker-end="url(#arrow)"/>
<line x1="1312.0" y1="400" x2="1312.0" y2="422" stroke="#6b7280" stroke-width="1.6" marker-end="url(#arrow)"/>
<rect x="200" y="510" width="1252" height="60" fill="#eef2ff" stroke="#1e3a8a" stroke-width="2" rx="10"/>
<text x="826.0" y="547.0" fill="#1e3a8a" font-size="18" font-weight="700" text-anchor="middle">P2P mesh — full · boot_nodes lists every peer</text>
<line x1="340.0" y1="482" x2="340.0" y2="504" stroke="#1e3a8a" stroke-width="1.6" marker-end="url(#arrow)"/>
<line x1="664.0" y1="482" x2="664.0" y2="504" stroke="#1e3a8a" stroke-width="1.6" marker-end="url(#arrow)"/>
<line x1="988.0" y1="482" x2="988.0" y2="504" stroke="#94a3b8" stroke-width="1.6" marker-end="url(#arrow)"/>
<line x1="1312.0" y1="482" x2="1312.0" y2="504" stroke="#1e3a8a" stroke-width="1.6" marker-end="url(#arrow)"/>
<rect x="200" y="594" width="280" height="54" fill="#ecfeff" stroke="#0e7490" stroke-width="2" rx="12"/>
<text x="340.0" y="628.0" fill="#155e75" font-size="16" font-weight="700" text-anchor="middle">RocksDB</text>
<line x1="340.0" y1="570" x2="340.0" y2="588" stroke="#0e7490" stroke-width="1.6" marker-end="url(#arrow)"/>
<rect x="524" y="594" width="280" height="54" fill="#ecfeff" stroke="#0e7490" stroke-width="2" rx="12"/>
<text x="664.0" y="628.0" fill="#155e75" font-size="16" font-weight="700" text-anchor="middle">RocksDB</text>
<line x1="664.0" y1="570" x2="664.0" y2="588" stroke="#0e7490" stroke-width="1.6" marker-end="url(#arrow)"/>
<rect x="848" y="594" width="280" height="54" fill="white" stroke="#0e7490" stroke-width="1.5" rx="12" stroke-dasharray="6,5"/>
<text x="988.0" y="629.0" fill="#0e7490" font-size="22" font-weight="700" text-anchor="middle">· · ·</text>
<line x1="988.0" y1="570" x2="988.0" y2="588" stroke="#94a3b8" stroke-width="1.6" marker-end="url(#arrow)"/>
<rect x="1172" y="594" width="280" height="54" fill="#ecfeff" stroke="#0e7490" stroke-width="2" rx="12"/>
<text x="1312.0" y="628.0" fill="#155e75" font-size="16" font-weight="700" text-anchor="middle">RocksDB</text>
<line x1="1312.0" y1="570" x2="1312.0" y2="588" stroke="#0e7490" stroke-width="1.6" marker-end="url(#arrow)"/>
<rect x="200" y="658" width="1252" height="30" fill="#1f2937" stroke="none" stroke-width="1" rx="4"/>
<text x="826.0" y="679.0" fill="white" font-size="14" font-weight="700" text-anchor="middle" font-family="ui-monospace, Menlo, monospace">Single HDD  ·  /dev/sda2</text></svg>